<?xml version="1.0" encoding="UTF-8" standalone="yes"?>
<svg version="1.2" viewBox="0 0 150 150.1" xml:space="preserve" baseProfile="tiny-ps" xmlns="http://www.w3.org/2000/svg">
  <title>bimi-svg-tiny-12-ps</title>
  <g id="surface2" transform="matrix(1.1610095,-0.36396164,0.36396218,1.1610078,-239.6217,47.350368)">
    <g>
      <g>
        <path id="path3825_00000153697901693218412240000007526589869867895705_" class="st0" d="&#xD;&#xA;&#x9;&#x9;&#x9;&#x9;M206.8,93.4l-16.9,1.5l1.5,17l16.9-1.5L206.8,93.4 M208.6,113.8l-17,1.5l1.5,17l17-1.4L208.6,113.8 M203.2,52.6l-7.1,0.6&#xD;&#xA;&#x9;&#x9;&#x9;&#x9;c-1.3,0.1-2.5,0.5-3.6,1.1c-1.2,0.6-2.2,1.4-3.1,2.4c-0.9,1.1-1.5,2.2-1.8,3.5c-0.4,1.3-0.5,2.5-0.4,3.8l0.6,7.2l16.9-1.5&#xD;&#xA;&#x9;&#x9;&#x9;&#x9;L203.2,52.6 M245.9,69.4l-17,1.5l1.5,17l17-1.5L245.9,69.4 M205,72.9l-16.9,1.5l1.5,17l16.9-1.4L205,72.9 M211.7,110.1l17-1.5&#xD;&#xA;&#x9;&#x9;&#x9;&#x9;l-1.4-17l-17.1,1.5L211.7,110.1 M209.9,89.7l17.1-1.5l-1.5-17.1l-17.1,1.5L209.9,89.7 M193.4,135.7l0.7,7.2&#xD;&#xA;&#x9;&#x9;&#x9;&#x9;c0.1,1.3,0.4,2.5,1.1,3.6c0.6,1.2,1.4,2.2,2.4,3.1c1.1,0.9,2.2,1.5,3.4,1.9c1.3,0.4,2.5,0.5,3.8,0.4l7.1-0.6l-1.5-17L193.4,135.7&#xD;&#xA;&#x9;&#x9;&#x9;&#x9; M208.1,69.3l17-1.4l-1.5-17.1l-17,1.5L208.1,69.3 M213.7,133.9l1.5,17l17.1-1.5l-1.5-17L213.7,133.9 M213.5,130.6l17-1.5&#xD;&#xA;&#x9;&#x9;&#x9;&#x9;L229,112l-17,1.5L213.5,130.6 M232.4,111.7l17.1-1.4l1.5,17l-17.1,1.5L232.4,111.7" fill-rule="evenodd" fill="#353A8C"/>
        <path id="path3827_00000047026602083021216070000006476838059903340418_" class="st1" d="&#xD;&#xA;&#x9;&#x9;&#x9;&#x9;M269.4,63.9l17.1-1.5l-0.6-7.1c-0.1-1.3-0.5-2.5-1.1-3.6c-0.6-1.2-1.4-2.2-2.4-3.1c-1.1-0.9-2.2-1.5-3.5-1.9s-2.5-0.5-3.8-0.4&#xD;&#xA;&#x9;&#x9;&#x9;&#x9;l-7.2,0.6L269.4,63.9 M234.2,132.1l1.5,17l37.4-3.2l-1.5-17L234.2,132.1 M272.9,104.8l17.1-1.5l-1.5-17.1l-17.1,1.5L272.9,104.8&#xD;&#xA;&#x9;&#x9;&#x9;&#x9; M268,88l-37.4,3.3l1.5,17l37.4-3.2L268,88 M264.4,47.1L227,50.4l1.5,17l37.4-3.2L264.4,47.1 M290.4,106.6l-37.5,3.2l1.4,17.1&#xD;&#xA;&#x9;&#x9;&#x9;&#x9;l37.6-3.3L290.4,106.6 M250.7,86.1l37.5-3.3l-1.4-17l-37.6,3.3L250.7,86.1 M292.1,127.1l0.6,7.1c0.1,1.3,0,2.5-0.4,3.8&#xD;&#xA;&#x9;&#x9;&#x9;&#x9;c-0.4,1.2-1,2.4-1.9,3.4c-0.9,1.1-1.9,1.9-3.1,2.4c-1.2,0.6-2.4,1-3.6,1.1l-7.2,0.7l-1.5-17.1L292.1,127.1" fill-rule="evenodd" fill="#3498BF"/>
      </g>
    </g>
  </g>
</svg>